<?xml version="1.0" encoding="UTF-8" standalone="no"?>
<svg
   xmlns:dc="http://purl.org/dc/elements/1.1/"
   xmlns:cc="http://creativecommons.org/ns#"
   xmlns:rdf="http://www.w3.org/1999/02/22-rdf-syntax-ns#"
   xmlns:svg="http://www.w3.org/2000/svg"
   xmlns="http://www.w3.org/2000/svg"
   xmlns:xlink="http://www.w3.org/1999/xlink"
   xmlns:sodipodi="http://sodipodi.sourceforge.net/DTD/sodipodi-0.dtd"
   xmlns:inkscape="http://www.inkscape.org/namespaces/inkscape"
   viewBox="0 0 558.40503 223.57877"
   id="svg5876"
   width="558.40503"
   height="223.57878"
   version="1.1"
   inkscape:version="0.91 r13725"
   sodipodi:docname="logo_simple_inverted2.svg">
  <metadata
     id="metadata4164">
    <rdf:RDF>
      <cc:Work
         rdf:about="">
        <dc:format>image/svg+xml</dc:format>
        <dc:type
           rdf:resource="http://purl.org/dc/dcmitype/StillImage" />
        <dc:title></dc:title>
      </cc:Work>
    </rdf:RDF>
  </metadata>
  <defs
     id="defs4162">
    <linearGradient
       inkscape:collect="always"
       id="linearGradient4213">
      <stop
         style="stop-color:#000000;stop-opacity:1;"
         offset="0"
         id="stop4215" />
      <stop
         style="stop-color:#000000;stop-opacity:0;"
         offset="1"
         id="stop4217" />
    </linearGradient>
    <radialGradient
       inkscape:collect="always"
       xlink:href="#linearGradient4213"
       id="radialGradient4219"
       cx="251.13066"
       cy="89.091599"
       fx="251.13066"
       fy="89.091599"
       r="250.52243"
       gradientTransform="matrix(2.9283224,8.5008779e-8,-1.751873e-8,1.7993608,-456.18905,-48.518564)"
       gradientUnits="userSpaceOnUse" />
    <filter
       style="color-interpolation-filters:sRGB;"
       inkscape:label="Drop Shadow"
       id="filter5809">
      <feFlood
         flood-opacity="0.756863"
         flood-color="rgb(0,0,0)"
         result="flood"
         id="feFlood5811" />
      <feComposite
         in="flood"
         in2="SourceGraphic"
         operator="in"
         result="composite1"
         id="feComposite5813" />
      <feGaussianBlur
         in="composite1"
         stdDeviation="6"
         result="blur"
         id="feGaussianBlur5815" />
      <feOffset
         dx="0"
         dy="6"
         result="offset"
         id="feOffset5817" />
      <feComposite
         in="SourceGraphic"
         in2="offset"
         operator="over"
         result="composite2"
         id="feComposite5819" />
    </filter>
  </defs>
  <sodipodi:namedview
     pagecolor="#ffffff"
     bordercolor="#666666"
     borderopacity="1"
     objecttolerance="10"
     gridtolerance="10"
     guidetolerance="10"
     inkscape:pageopacity="0"
     inkscape:pageshadow="2"
     inkscape:window-width="1920"
     inkscape:window-height="1017"
     id="namedview4160"
     showgrid="false"
     inkscape:zoom="1.398845"
     inkscape:cx="350.31001"
     inkscape:cy="102.08362"
     inkscape:window-x="-8"
     inkscape:window-y="-8"
     inkscape:window-maximized="1"
     inkscape:current-layer="g6626"
     fit-margin-top="0"
     fit-margin-left="0"
     fit-margin-right="0"
     fit-margin-bottom="0" />
  <style
     id="style5878">.st0{fill:#FFFFFF;} .st1{fill:#F4F4F4;} .st2{fill:#F2F2F2;} .st3{fill:#F7F7F7;}</style>
  <ellipse
     style="fill:url(#radialGradient4219);fill-opacity:1;stroke:none;stroke-width:1.27706075;stroke-opacity:1"
     id="path4166"
     cx="279.20251"
     cy="111.78939"
     rx="279.20251"
     ry="111.78939" />
  <g
     id="Слой_1"
     transform="translate(28.071854,22.697792)">
    <g
       id="g6626">
      <g
         id="g6593">
        <g
           id="g5916"
           style="fill:#f4f4f4">
          <path
             class="st1"
             d="m 251.1,177.2 c -66,0 -128.1,-8.7 -175,-24.4 C 27.1,136.3 0,113.6 0,88.6 0,63.7 27,40.9 76.1,24.4 122.9,8.7 185.1,0 251.1,0 c 66,0 128.1,8.7 175,24.4 49,16.5 76.1,39.2 76.1,64.2 0,24.9 -27,47.7 -76.1,64.2 -46.8,15.8 -109,24.4 -175,24.4 z m 0,-174 c -65.7,0 -127.5,8.6 -174,24.2 -47.7,16 -74,37.8 -74,61.3 0,23.5 26.3,45.3 74,61.3 46.5,15.6 108.3,24.2 174,24.2 65.7,0 127.5,-8.6 174,-24.2 47.7,-16 74,-37.8 74,-61.3 0,-23.5 -26.3,-45.3 -74,-61.3 C 378.6,11.8 316.8,3.2 251.1,3.2 Z"
             id="path5918"
             inkscape:connector-curvature="0"
             style="fill:#f4f4f4" />
          <path
             class="st1"
             d="m 251.1,172.7 c -65.5,0 -127.2,-8.6 -173.6,-24.1 -47.1,-15.8 -73,-37.1 -73,-59.9 0,-22.8 25.9,-44.1 73,-59.9 46.4,-15.6 108,-24.1 173.6,-24.1 65.6,0 127.2,8.6 173.6,24.1 47.1,15.8 73,37.1 73,59.9 0,22.8 -25.9,44.1 -73,59.9 -46.4,15.5 -108,24.1 -173.6,24.1 z m 0,-164 C 186,8.7 124.8,17.2 78.8,32.6 34.1,47.6 8.5,68 8.5,88.7 c 0,20.7 25.6,41.1 70.3,56.1 46,15.4 107.2,23.9 172.3,23.9 65.1,0 126.3,-8.5 172.3,-23.9 44.7,-15 70.3,-35.4 70.3,-56.1 C 493.7,68 468.1,47.6 423.4,32.6 377.4,17.2 316.2,8.7 251.1,8.7 Z"
             id="path5920"
             inkscape:connector-curvature="0"
             style="fill:#f4f4f4" />
        </g>
      </g>
      <g
         id="ludlow_1_"
         style="fill:#f2f2f2;filter:url(#filter5809)">
        <path
           id="path5923"
           d="m 80.8,95 0,-39.4 9.3,0 0,32 29.9,0 0,7.4 -39.2,0 z"
           class="st2"
           inkscape:connector-curvature="0"
           style="fill:#f2f2f2" />
        <path
           id="path5925"
           d="m 141.5,55.7 0,32 26.4,0 0,-32 9.3,0 0,30.1 c 0,3.6 -0.7,6 -2,7.3 -1.4,1.3 -4,2 -7.9,2 l -25.2,0 c -3.9,0 -6.5,-0.7 -7.8,-2 -1.4,-1.3 -2.1,-3.7 -2.1,-7.3 l 0,-30.1 9.3,0 z"
           class="st2"
           inkscape:connector-curvature="0"
           style="fill:#f2f2f2" />
        <path
           id="path5927"
           d="m 197.7,95 0,-39.4 25.7,0 c 7.3,0 13,1.7 16.9,5 3.9,3.4 5.9,8.2 5.9,14.4 0,3.6 -0.8,6.9 -2.3,9.9 -1.5,3 -3.7,5.3 -6.5,6.9 -1.7,1.1 -3.9,1.8 -6.4,2.3 -2.5,0.5 -5.8,0.8 -10,0.8 l -23.3,0 z m 9.2,-7.3 12,0 c 6.4,0 10.9,-1 13.6,-3 2.7,-1.9 4,-5.1 4,-9.7 0,-4.1 -1.1,-7.1 -3.3,-9.2 -2.3,-2.1 -5.6,-3.1 -9.8,-3.1 l -16.5,0 0,25 z"
           class="st2"
           inkscape:connector-curvature="0"
           style="fill:#f2f2f2" />
        <path
           id="path5929"
           d="m 263.1,95 0,-39.4 9.3,0 0,32 29.9,0 0,7.4 -39.2,0 z"
           class="st2"
           inkscape:connector-curvature="0"
           style="fill:#f2f2f2" />
        <path
           id="path5931"
           d="m 314.3,65 c 0,-3.5 0.7,-6 2,-7.3 1.4,-1.3 4.1,-2 7.9,-2 l 29.4,0 c 3.9,0 6.5,0.7 7.8,2 1.4,1.3 2.1,3.7 2.1,7.3 l 0,20.7 c 0,3.6 -0.7,6 -2.1,7.3 -1.3,1.3 -3.9,2 -7.8,2 l -29.4,0 c -3.8,0 -6.5,-0.7 -7.9,-2 -1.3,-1.3 -2,-3.8 -2,-7.3 l 0,-20.7 z m 9.3,22.7 30.6,0 0,-25 -30.6,0 0,25 z"
           class="st2"
           inkscape:connector-curvature="0"
           style="fill:#f2f2f2" />
        <path
           id="path5933"
           d="m 384.6,95 -15.4,-39.4 9.6,0 10.1,26.4 10.6,-26.4 6.5,0 10.8,26.4 9.7,-26.4 8.3,0 -15.4,39.4 -6.3,0 -11,-27.2 -11.1,27.2 -6.4,0 z"
           class="st2"
           inkscape:connector-curvature="0"
           style="fill:#f2f2f2" />
      </g>
      <path
         id="blueline_3_"
         d="m 79.5,104.3 357.2,0 0,16.2 -357.2,0 z"
         inkscape:connector-curvature="0" />
      <g
         id="fitness_2_"
         style="fill:#f7f7f7">
        <path
           id="path5937"
           d="m 82.4,118 0,-11.1 14.9,0 0,2 -11.5,0 0,2.9 6.2,0 0,2 -6.2,0 0,4.2 -3.4,0 z"
           class="st3"
           inkscape:connector-curvature="0"
           style="fill:#f7f7f7" />
        <path
           id="path5939"
           d="m 138.3,118 0,-11.1 3.4,0 0,11.2 -3.4,0 z"
           class="st3"
           inkscape:connector-curvature="0"
           style="fill:#f7f7f7" />
        <path
           id="path5941"
           d="m 193,108.8 0,9.2 -3.4,0 0,-9.2 -6.7,0 0,-2 16.9,0 0,2 -6.8,0 z"
           class="st3"
           inkscape:connector-curvature="0"
           style="fill:#f7f7f7" />
        <path
           id="path5943"
           d="m 240.8,118 0,-11.1 2.3,0 10.3,6.6 c 0.4,0.2 0.7,0.4 0.9,0.6 0.2,0.1 0.4,0.4 0.7,0.6 0,-0.3 0,-0.6 -0.1,-0.8 l 0,-0.6 0,-6.4 3.1,0 0,11.2 -2.3,0 -10.8,-6.9 c -0.3,-0.2 -0.5,-0.4 -0.7,-0.5 -0.2,-0.2 -0.4,-0.3 -0.5,-0.4 0,0.1 0,0.3 0.1,0.5 0,0.2 0,0.4 0.1,0.5 l 0,6.8 -3.1,0 z"
           class="st3"
           inkscape:connector-curvature="0"
           style="fill:#f7f7f7" />
        <path
           id="path5945"
           d="m 301.4,118 0,-11.1 15,0 0,1.9 -11.6,0 0,2.5 6.8,0 0,1.9 -6.8,0 0,2.8 11.8,0 0,2.1 -15.2,0 z"
           class="st3"
           inkscape:connector-curvature="0"
           style="fill:#f7f7f7" />
        <path
           id="path5947"
           d="m 371.5,108.8 -9.6,0 0,2.4 9.2,0 c 1.4,0 2.4,0.2 2.9,0.6 0.5,0.4 0.7,1.1 0.7,2.1 l 0,1.5 c 0,1 -0.2,1.7 -0.7,2.1 -0.5,0.4 -1.5,0.6 -2.9,0.6 l -9.1,0 c -1.4,0 -2.4,-0.2 -2.9,-0.6 -0.5,-0.4 -0.8,-1.1 -0.8,-2.1 l 0,-0.3 3,-0.5 0,1.3 10.4,0 0,-2.6 -9.2,0 c -1.4,0 -2.4,-0.2 -2.9,-0.6 -0.5,-0.4 -0.8,-1.1 -0.8,-2.1 l 0,-1.2 c 0,-1 0.3,-1.7 0.8,-2.1 0.5,-0.4 1.5,-0.6 2.9,-0.6 l 8.3,0 c 1.4,0 2.3,0.2 2.9,0.5 0.5,0.4 0.8,1 0.8,1.9 l 0,0.2 -3,0.5 0,-1 z"
           class="st3"
           inkscape:connector-curvature="0"
           style="fill:#f7f7f7" />
        <path
           id="path5949"
           d="m 430.4,108.8 -9.6,0 0,2.4 9.2,0 c 1.4,0 2.4,0.2 2.9,0.6 0.5,0.4 0.7,1.1 0.7,2.1 l 0,1.5 c 0,1 -0.2,1.7 -0.7,2.1 -0.5,0.4 -1.5,0.6 -2.9,0.6 l -9.1,0 c -1.4,0 -2.4,-0.2 -2.9,-0.6 -0.5,-0.4 -0.8,-1.1 -0.8,-2.1 l 0,-0.3 3,-0.5 0,1.3 10.4,0 0,-2.6 -9.2,0 c -1.4,0 -2.4,-0.2 -2.9,-0.6 -0.5,-0.4 -0.8,-1.1 -0.8,-2.1 l 0,-1.2 c 0,-1 0.3,-1.7 0.8,-2.1 0.5,-0.4 1.5,-0.6 2.9,-0.6 l 8.3,0 c 1.4,0 2.3,0.2 2.9,0.5 0.5,0.4 0.8,1 0.8,1.9 l 0,0.2 -3,0.5 0,-1 z"
           class="st3"
           inkscape:connector-curvature="0"
           style="fill:#f7f7f7" />
      </g>
    </g>
  </g>
</svg>
