<svg xmlns="http://www.w3.org/2000/svg" viewBox="0 0 502.20001 177.19999" id="svg5876" width="502.2" height="177.2"><style id="style5878">.st0{fill:#FFFFFF;} .st1{fill:#F4F4F4;} .st2{fill:#F2F2F2;} .st3{fill:#F7F7F7;}</style><g id="Слой_1"><g id="g6626"><g id="g6593"><g id="g5916" fill="#f4f4f4"><path class="st1" d="M251.1 177.2c-66 0-128.1-8.7-175-24.4C27.1 136.3 0 113.6 0 88.6c0-24.9 27-47.7 76.1-64.2C122.9 8.7 185.1 0 251.1 0s128.1 8.7 175 24.4c49 16.5 76.1 39.2 76.1 64.2 0 24.9-27 47.7-76.1 64.2-46.8 15.8-109 24.4-175 24.4zm0-174c-65.7 0-127.5 8.6-174 24.2-47.7 16-74 37.8-74 61.3s26.3 45.3 74 61.3c46.5 15.6 108.3 24.2 174 24.2s127.5-8.6 174-24.2c47.7-16 74-37.8 74-61.3s-26.3-45.3-74-61.3c-46.5-15.6-108.3-24.2-174-24.2z" id="path5918"/><path class="st1" d="M251.1 172.7c-65.5 0-127.2-8.6-173.6-24.1-47.1-15.8-73-37.1-73-59.9 0-22.8 25.9-44.1 73-59.9 46.4-15.6 108-24.1 173.6-24.1s127.2 8.6 173.6 24.1c47.1 15.8 73 37.1 73 59.9 0 22.8-25.9 44.1-73 59.9-46.4 15.5-108 24.1-173.6 24.1zm0-164c-65.1 0-126.3 8.5-172.3 23.9C34.1 47.6 8.5 68 8.5 88.7c0 20.7 25.6 41.1 70.3 56.1 46 15.4 107.2 23.9 172.3 23.9 65.1 0 126.3-8.5 172.3-23.9 44.7-15 70.3-35.4 70.3-56.1 0-20.7-25.6-41.1-70.3-56.1-46-15.4-107.2-23.9-172.3-23.9z" id="path5920"/></g></g><g id="ludlow_1_" fill="#f2f2f2"><path id="path5923" d="M80.8 95V55.6h9.3v32H120V95H80.8z" class="st2"/><path id="path5925" d="M141.5 55.7v32h26.4v-32h9.3v30.1c0 3.6-.7 6-2 7.3-1.4 1.3-4 2-7.9 2h-25.2c-3.9 0-6.5-.7-7.8-2-1.4-1.3-2.1-3.7-2.1-7.3V55.7h9.3z" class="st2"/><path id="path5927" d="M197.7 95V55.6h25.7c7.3 0 13 1.7 16.9 5 3.9 3.4 5.9 8.2 5.9 14.4 0 3.6-.8 6.9-2.3 9.9-1.5 3-3.7 5.3-6.5 6.9-1.7 1.1-3.9 1.8-6.4 2.3-2.5.5-5.8.8-10 .8h-23.3zm9.2-7.3h12c6.4 0 10.9-1 13.6-3 2.7-1.9 4-5.1 4-9.7 0-4.1-1.1-7.1-3.3-9.2-2.3-2.1-5.6-3.1-9.8-3.1h-16.5v25z" class="st2"/><path id="path5929" d="M263.1 95V55.6h9.3v32h29.9V95h-39.2z" class="st2"/><path id="path5931" d="M314.3 65c0-3.5.7-6 2-7.3 1.4-1.3 4.1-2 7.9-2h29.4c3.9 0 6.5.7 7.8 2 1.4 1.3 2.1 3.7 2.1 7.3v20.7c0 3.6-.7 6-2.1 7.3-1.3 1.3-3.9 2-7.8 2h-29.4c-3.8 0-6.5-.7-7.9-2-1.3-1.3-2-3.8-2-7.3V65zm9.3 22.7h30.6v-25h-30.6v25z" class="st2"/><path id="path5933" d="M384.6 95l-15.4-39.4h9.6L388.9 82l10.6-26.4h6.5L416.8 82l9.7-26.4h8.3L419.4 95h-6.3l-11-27.2L391 95h-6.4z" class="st2"/></g><path id="blueline_3_" d="M79.5 104.3h357.2v16.2H79.5z"/><g id="fitness_2_" fill="#f7f7f7"><path id="path5937" d="M82.4 118v-11.1h14.9v2H85.8v2.9H92v2h-6.2v4.2h-3.4z" class="st3"/><path id="path5939" d="M138.3 118v-11.1h3.4v11.2h-3.4z" class="st3"/><path id="path5941" d="M193 108.8v9.2h-3.4v-9.2h-6.7v-2h16.9v2H193z" class="st3"/><path id="path5943" d="M240.8 118v-11.1h2.3l10.3 6.6c.4.2.7.4.9.6.2.1.4.4.7.6 0-.3 0-.6-.1-.8v-.6V106.9h3.1v11.2h-2.3l-10.8-6.9c-.3-.2-.5-.4-.7-.5-.2-.2-.4-.3-.5-.4 0 .1 0 .3.1.5 0 .2 0 .4.1.5v6.8h-3.1z" class="st3"/><path id="path5945" d="M301.4 118v-11.1h15v1.9h-11.6v2.5h6.8v1.9h-6.8v2.8h11.8v2.1h-15.2z" class="st3"/><path id="path5947" d="M371.5 108.8h-9.6v2.4h9.2c1.4 0 2.4.2 2.9.6.5.4.7 1.1.7 2.1v1.5c0 1-.2 1.7-.7 2.1-.5.4-1.5.6-2.9.6H362c-1.4 0-2.4-.2-2.9-.6-.5-.4-.8-1.1-.8-2.1v-.3l3-.5v1.3h10.4v-2.6h-9.2c-1.4 0-2.4-.2-2.9-.6-.5-.4-.8-1.1-.8-2.1v-1.2c0-1 .3-1.7.8-2.1.5-.4 1.5-.6 2.9-.6h8.3c1.4 0 2.3.2 2.9.5.5.4.8 1 .8 1.9v.2l-3 .5v-1z" class="st3"/><path id="path5949" d="M430.4 108.8h-9.6v2.4h9.2c1.4 0 2.4.2 2.9.6.5.4.7 1.1.7 2.1v1.5c0 1-.2 1.7-.7 2.1-.5.4-1.5.6-2.9.6h-9.1c-1.4 0-2.4-.2-2.9-.6-.5-.4-.8-1.1-.8-2.1v-.3l3-.5v1.3h10.4v-2.6h-9.2c-1.4 0-2.4-.2-2.9-.6-.5-.4-.8-1.1-.8-2.1v-1.2c0-1 .3-1.7.8-2.1.5-.4 1.5-.6 2.9-.6h8.3c1.4 0 2.3.2 2.9.5.5.4.8 1 .8 1.9v.2l-3 .5v-1z" class="st3"/></g></g></g></svg>