<?xml version="1.0" encoding="utf-8"?>
<!-- Generator: Adobe Illustrator 19.1.0, SVG Export Plug-In . SVG Version: 6.00 Build 0)  -->
<svg version="1.1" id="Слой_1" xmlns="http://www.w3.org/2000/svg" xmlns:xlink="http://www.w3.org/1999/xlink" x="0px" y="0px"
	 viewBox="0 0 500 200" style="enable-background:new 0 0 500 200;" xml:space="preserve">
<style type="text/css">
	.st0{fill:url(#SVGID_1_);}
	.st1{fill:none;stroke:#000000;stroke-width:5;stroke-miterlimit:10;}
	.st2{opacity:0.93;fill:none;stroke:#4D4D4D;stroke-width:4;stroke-miterlimit:10;}
	.st3{fill:#B9B8FA;}
</style>
<g id="ellipse">
	<linearGradient id="SVGID_1_" gradientUnits="userSpaceOnUse" x1="250.2691" y1="171.6328" x2="250.2691" y2="15.4271">
		<stop  offset="0" style="stop-color:#808080"/>
		<stop  offset="0.25" style="stop-color:#FFFFFF"/>
		<stop  offset="0.5" style="stop-color:#999999"/>
		<stop  offset="0.75" style="stop-color:#FFFFFF"/>
		<stop  offset="1" style="stop-color:#808080"/>
	</linearGradient>
	<ellipse class="st0" cx="250.3" cy="93.5" rx="232.9" ry="78.1"/>
	<ellipse class="st1" cx="250.3" cy="93.5" rx="232.9" ry="78.1"/>
	<path class="st2" d="M250.3,177.6c-62.8,0-122-8.2-166.6-23.2c-46.6-15.6-72.3-37.3-72.3-60.9c0-23.6,25.7-45.3,72.3-60.9
		c44.6-15,103.7-23.2,166.6-23.2s122,8.2,166.6,23.2c46.6,15.6,72.3,37.3,72.3,60.9c0,23.6-25.7,45.3-72.3,60.9
		C372.3,169.4,313.1,177.6,250.3,177.6z"/>
</g>
<g id="ludlow">
	<path d="M91,99.6V62.1h8.8v30.4h28.5v7H91z"/>
	<path d="M148.8,62.1v30.4h25.2V62.1h8.8v28.6c0,3.4-0.6,5.7-1.9,7c-1.3,1.3-3.8,1.9-7.5,1.9h-24c-3.7,0-6.2-0.6-7.4-1.9
		c-1.3-1.2-2-3.6-2-7V62.1H148.8z"/>
	<path d="M202.2,99.6V62.1h24.5c7,0,12.4,1.6,16.1,4.8c3.7,3.2,5.6,7.8,5.6,13.7c0,3.5-0.7,6.6-2.2,9.4c-1.5,2.8-3.5,5-6.2,6.6
		c-1.7,1-3.7,1.7-6.1,2.2c-2.4,0.5-5.5,0.7-9.5,0.7H202.2z M211.1,92.6h11.4c6.1,0,10.4-0.9,13-2.8c2.6-1.8,3.8-4.9,3.8-9.2
		c0-3.9-1.1-6.8-3.2-8.7c-2.2-2-5.3-3-9.3-3h-15.7V92.6z"/>
	<path d="M264.6,99.6V62.1h8.8v30.4h28.5v7H264.6z"/>
	<path d="M313.2,71c0-3.4,0.6-5.7,1.9-7c1.4-1.3,3.9-1.9,7.5-1.9h28c3.7,0,6.2,0.6,7.4,1.9c1.3,1.2,2,3.6,2,7v19.8
		c0,3.4-0.7,5.7-2,7c-1.3,1.3-3.7,1.9-7.4,1.9h-28c-3.6,0-6.2-0.6-7.5-1.9c-1.3-1.3-1.9-3.6-1.9-7V71z M322.1,92.6h29.2V68.8h-29.2
		V92.6z"/>
	<path d="M380.2,99.6l-14.7-37.5h9.1l9.6,25.1l10.1-25.1h6.2l10.3,25.1l9.2-25.1h7.9l-14.7,37.5h-6l-10.4-25.9l-10.6,25.9H380.2z"/>
</g>
<rect id="blueline" x="86.8" y="108.4" class="st3" width="340.1" height="15.4"/>
<g id="fitness_1_">
	<path d="M89.6,121.5v-10.6h14.2v1.9H92.9v2.8h5.9v1.9h-5.9v4H89.6z"/>
	<path d="M142.8,121.5v-10.6h3.2l0,10.6H142.8z"/>
	<path d="M194.9,112.7v8.7h-3.3v-8.7h-6.4v-1.9h16.1v1.9H194.9z"/>
	<path d="M240.4,121.5v-10.6h2.2l9.8,6.3c0.4,0.2,0.7,0.4,0.9,0.6c0.2,0.1,0.4,0.3,0.7,0.6c0-0.3,0-0.5-0.1-0.7c0-0.2,0-0.4,0-0.5
		c0-0.2,0-0.4,0-0.6v-5.6h2.9v10.6h-2.2l-10.3-6.6c-0.3-0.2-0.5-0.3-0.7-0.5c-0.2-0.2-0.4-0.3-0.5-0.4c0,0.1,0,0.3,0.1,0.5
		c0,0.2,0,0.4,0.1,0.4c0,0.2,0,0.5,0,0.8v5.8H240.4z"/>
	<path d="M298.1,121.5v-10.6h14.3v1.8h-11.1v2.4h6.5v1.8h-6.5v2.6h11.2v2H298.1z"/>
	<path d="M364.9,112.7h-9.2v2.3h8.7c1.4,0,2.3,0.2,2.8,0.5c0.5,0.4,0.7,1,0.7,2v1.5c0,1-0.2,1.6-0.7,2c-0.5,0.4-1.4,0.5-2.8,0.5
		h-8.6c-1.4,0-2.3-0.2-2.8-0.5c-0.5-0.4-0.7-1-0.7-2v-0.3l2.9-0.5v1.3h9.9V117h-8.7c-1.3,0-2.3-0.2-2.7-0.5c-0.5-0.4-0.7-1-0.7-2
		v-1.2c0-1,0.2-1.6,0.7-2c0.5-0.4,1.4-0.5,2.7-0.5h7.9c1.3,0,2.2,0.2,2.7,0.5c0.5,0.3,0.7,1,0.7,1.8v0.2l-2.9,0.5V112.7z"/>
	<path d="M421,112.7h-9.2v2.3h8.7c1.4,0,2.3,0.2,2.8,0.5c0.5,0.4,0.7,1,0.7,2v1.5c0,1-0.2,1.6-0.7,2c-0.5,0.4-1.4,0.5-2.8,0.5h-8.6
		c-1.4,0-2.3-0.2-2.8-0.5c-0.5-0.4-0.7-1-0.7-2v-0.3l2.9-0.5v1.3h9.9V117h-8.7c-1.3,0-2.3-0.2-2.7-0.5c-0.5-0.4-0.7-1-0.7-2v-1.2
		c0-1,0.2-1.6,0.7-2c0.5-0.4,1.4-0.5,2.7-0.5h7.9c1.3,0,2.2,0.2,2.7,0.5c0.5,0.3,0.7,1,0.7,1.8v0.2l-2.9,0.5V112.7z"/>
</g>
</svg>
